# xmcd CD database file
#
# Track frame offsets:
#	150
#	25875
#	50890
#	73305
#	92877
#	109727
#	129817
#	148097
#	159617
#	183235
#	207272
#	231070
#
# Disc length: 4461 seconds
#
# Revision: 0
# Processed by: cddbd v1.5PL3 Copyright (c) Steve Scherf et al.
# Submitted via: CDex 1.50
#
DISCID=ad116b0c
DTITLE=坂本サトル - 走る人
DYEAR=2001
DGENRE=JPop
TTITLE0=走る人
TTITLE1=風のゆくえ
TTITLE2=最後に咲く花
TTITLE3=霧雨
TTITLE4=青い扉
TTITLE5=たかがそんなこと
TTITLE6=キリフダ
TTITLE7=OK
TTITLE8=赤い月
TTITLE9=明日の色
TTITLE10=一日の終わりに
TTITLE11=明日の色（カウントダウンSAPPORO2001バージョン）
EXTD=YEAR: 2001
EXTT0=
EXTT1=
EXTT2=
EXTT3=
EXTT4=
EXTT5=
EXTT6=
EXTT7=
EXTT8=
EXTT9=
EXTT10=
EXTT11=
PLAYORDER=
